# xmcd
#
# Track frame offsets: 
#        183
#        23773
#        42505
#
# Disc length: 883 seconds
#
# Revision: 0
# Processed by: cddbd v1.5.2PL0 Copyright (c) Steve Scherf et al.
# Submitted via: ExactAudioCopy v1.0b3
#
DISCID=1d037103
DTITLE=East Bam / Aka Aka
DYEAR=1990
DGENRE=Hip-Hop
TTITLE0=Aka Aka (Aka Bass Mix)
TTITLE1=Aka Aka (Soviet MC Mix)
TTITLE2=Theme From Riga (Riga Sunrise Mix)
EXTD=
EXTT0=
EXTT1=
EXTT2=
PLAYORDER=
